<svg width="1922" height="976" viewBox="0 0 1922 976" fill="none" xmlns="http://www.w3.org/2000/svg">
<path d="M1 244.75C129 293.457 257 342.159 385 267.964C513 193.77 641 -3.33292 769 35.8214C897 74.9758 1025 350.381 1153 442.071C1281 533.762 1409 441.737 1537 337.607C1665 233.477 1793 117.236 1921 1V976C1793 976 1665 976 1537 976C1409 976 1281 976 1153 976C1025 976 897 976 769 976C641 976 513 976 385 976C257 976 129 976 1 976V244.75Z" fill="#FFC6B0" fill-opacity="0.5"/>
<path d="M1 244.75C129 293.457 257 342.159 385 267.964C513 193.77 641 -3.33292 769 35.8214C897 74.9758 1025 350.381 1153 442.071C1281 533.762 1409 441.737 1537 337.607C1665 233.477 1793 117.236 1921 1" stroke="#9C9C9C"/>
</svg>
