<svg width="1922" height="778" viewBox="0 0 1922 778" fill="none" xmlns="http://www.w3.org/2000/svg">
<path d="M1 12.4106C161 259.741 321 507.072 481 595.589C641 684.105 801 613.813 961 458.906C1121 304 1281 64.4787 1441 12.4106C1601 -39.6576 1761 95.7224 1921 231.102V777.832C1761 777.832 1601 777.832 1441 777.832C1281 777.832 1121 777.832 961 777.832C801 777.832 641 777.832 481 777.832C321 777.832 161 777.832 1 777.832V12.4106Z" fill="#FFD29C" fill-opacity="0.63"/>
<path d="M1 12.4106C161 259.741 321 507.072 481 595.589C641 684.105 801 613.813 961 458.906C1121 304 1281 64.4787 1441 12.4106C1601 -39.6576 1761 95.7224 1921 231.102" stroke="white"/>
</svg>
