<svg xmlns="http://www.w3.org/2000/svg" version="1.1" xmlns:xlink="http://www.w3.org/1999/xlink" width="512" height="512" x="0" y="0" viewBox="0 0 512 512" style="enable-background:new 0 0 512 512" xml:space="preserve" class=""><g><path d="M511.8 224.373 499.886 69.426c-2.371-30.839-26.474-54.941-57.312-57.312L287.627.199c-18.682-1.435-35.557 4.808-48.804 18.056L17.536 239.542C6.228 250.85 0 265.93 0 282.006c0 16.075 6.228 31.156 17.536 42.464L187.53 494.464c11.708 11.709 27.083 17.562 42.464 17.562 15.376 0 30.758-5.855 42.464-17.562l221.288-221.287c13.248-13.249 19.491-30.125 18.054-48.804zm-40.682 26.177L249.831 471.837c-10.939 10.938-28.736 10.936-39.673 0L40.164 301.843C34.899 296.578 32 289.533 32 282.006c0-7.528 2.899-14.573 8.163-19.837L261.451 40.882c5.962-5.963 12.846-8.884 20.973-8.884a35.7 35.7 0 0 1 2.75.107L440.121 44.02c14.99 1.151 26.707 12.868 27.859 27.858l11.915 154.948c.718 9.34-2.153 17.1-8.777 23.724zM374.744 76.462c-33.522 0-60.794 27.272-60.794 60.794s27.272 60.794 60.794 60.795c33.522-.001 60.794-27.273 60.794-60.795s-27.272-60.794-60.794-60.794zm0 89.589c-15.877-.001-28.794-12.918-28.794-28.795s12.917-28.794 28.794-28.794 28.794 12.917 28.794 28.794-12.917 28.794-28.794 28.795z" fill="#000000" opacity="1" data-original="#000000" class=""></path></g></svg>